HIERARCHY
ROOT root
{
  OFFSET 0 98.6856 0
  CHANNELS 6 Xposition Yposition Zposition Zrotation Xrotation Yrotation
  JOINT torso_1
  {
    OFFSET 0 5.37224 -1.21793
    CHANNELS 6 Xposition Yposition Zposition Zrotation Xrotation Yrotation
    JOINT torso_2
    {
      OFFSET 0 5.94127 1.13336
      CHANNELS 6 Xposition Yposition Zposition Zrotation Xrotation Yrotation
      JOINT torso_3
      {
        OFFSET -1.08535e-17 6.33601 0.121658
        CHANNELS 6 Xposition Yposition Zposition Zrotation Xrotation Yrotation
        JOINT torso_4
        {
          OFFSET -1.16841e-17 6.88189 -0.46916
          CHANNELS 6 Xposition Yposition Zposition Zrotation Xrotation Yrotation
          JOINT torso_5
          {
            OFFSET -2.08699e-17 8.0451 -1.59297
            CHANNELS 6 Xposition Yposition Zposition Zrotation Xrotation Yrotation
            JOINT torso_6
            {
              OFFSET -2.67949e-17 10.0463 -0.967353
              CHANNELS 6 Xposition Yposition Zposition Zrotation Xrotation Yrotation
              JOINT torso_7
              {
                OFFSET -3.07187e-17 11.1612 1.66806
                CHANNELS 6 Xposition Yposition Zposition Zrotation Xrotation Yrotation
                JOINT neck_1
                {
                  OFFSET -1.36661e-17 5.06312 0.756688
                  CHANNELS 6 Xposition Yposition Zposition Zrotation Xrotation Yrotation
                  JOINT neck_2
                  {
                    OFFSET -1.91632e-17 5.09976 0.446172
                    CHANNELS 6 Xposition Yposition Zposition Zrotation Xrotation Yrotation
                    JOINT head
                    {
                      OFFSET -2.12574e-17 5.10962 0.809285
                      CHANNELS 6 Xposition Yposition Zposition Zrotation Xrotation Yrotation
                      End Site
                      {
                        OFFSET 0 0.1 0
                      }
                    }
                  }
                }
                JOINT l_shoulder
                {
                  OFFSET 1.30426 -8.04703 7.96922
                  CHANNELS 6 Xposition Yposition Zposition Zrotation Xrotation Yrotation
                  JOINT l_up_arm
                  {
                    OFFSET 13.7035 3.43734 -3.45766
                    CHANNELS 6 Xposition Yposition Zposition Zrotation Xrotation Yrotation
                    JOINT l_low_arm
                    {
                      OFFSET 30.8964 0.0632652 0.14496
                      CHANNELS 6 Xposition Yposition Zposition Zrotation Xrotation Yrotation
                      JOINT l_hand
                      {
                        OFFSET 25.6348 0.0524902 0.120274
                        CHANNELS 6 Xposition Yposition Zposition Zrotation Xrotation Yrotation
                        End Site
                        {
                          OFFSET 0.1 0 0
                        }
                      }
                    }
                  }
                }
                JOINT r_shoulder
                {
                  OFFSET -1.30426 -8.04702 7.96912
                  CHANNELS 6 Xposition Yposition Zposition Zrotation Xrotation Yrotation
                  JOINT r_up_arm
                  {
                    OFFSET -13.7035 3.43734 -3.45766
                    CHANNELS 6 Xposition Yposition Zposition Zrotation Xrotation Yrotation
                    JOINT r_low_arm
                    {
                      OFFSET -30.8964 0.0632652 0.14496
                      CHANNELS 6 Xposition Yposition Zposition Zrotation Xrotation Yrotation
                      JOINT r_hand
                      {
                        OFFSET -25.6348 0.0524901 0.120274
                        CHANNELS 6 Xposition Yposition Zposition Zrotation Xrotation Yrotation
                        End Site
                        {
                          OFFSET -0.1 0 0
                        }
                      }
                    }
                  }
                }
              }
            }
          }
        }
      }
    }
  }
  JOINT l_up_leg
  {
    OFFSET 9.77065 -4.44866 2.1502
    CHANNELS 6 Xposition Yposition Zposition Zrotation Xrotation Yrotation
    JOINT l_low_leg
    {
      OFFSET -0.901622 -41.0132 -0.693059
      CHANNELS 6 Xposition Yposition Zposition Zrotation Xrotation Yrotation
      JOINT l_foot
      {
        OFFSET -2.46068 -42.7371 -6.39839
        CHANNELS 6 Xposition Yposition Zposition Zrotation Xrotation Yrotation
        JOINT l_toes
        {
          OFFSET 0.82413 -10.4558 13.2182
          CHANNELS 6 Xposition Yposition Zposition Zrotation Xrotation Yrotation
          End Site
          {
            OFFSET 0 0 0.1
          }
        }
      }
    }
  }
  JOINT r_up_leg
  {
    OFFSET -9.77065 -4.44866 2.1502
    CHANNELS 6 Xposition Yposition Zposition Zrotation Xrotation Yrotation
    JOINT r_low_leg
    {
      OFFSET 0.901622 -41.0132 -0.693059
      CHANNELS 6 Xposition Yposition Zposition Zrotation Xrotation Yrotation
      JOINT r_foot
      {
        OFFSET 2.46068 -42.7371 -6.39839
        CHANNELS 6 Xposition Yposition Zposition Zrotation Xrotation Yrotation
        JOINT r_toes
        {
          OFFSET -0.82413 -10.4558 13.2182
          CHANNELS 6 Xposition Yposition Zposition Zrotation Xrotation Yrotation
          End Site
          {
            OFFSET 0 0 0.1
          }
        }
      }
    }
  }
}
MOTION
Frames: 4
Frame Time: 0.02
0 98.6856 0 -0 0 -0 0 5.37224 -1.21793 -0 0 -0 0 5.94127 1.13336 -0 0 -0 -1.08535e-17 6.33601 0.121658 -0 0 -0 -1.16841e-17 6.88189 -0.46916 -0 0 -0 -2.08699e-17 8.0451 -1.59297 -0 0 -0 -2.67949e-17 10.0463 -0.967353 -0 0 -0 -3.07187e-17 11.1612 1.66806 -0 0 -0 -1.36661e-17 5.06312 0.756688 -0 0 -0 -1.91632e-17 5.09976 0.446172 -0 0 -0 -2.12574e-17 5.10962 0.809285 -0 0 -0 1.30426 -8.04703 7.96922 -0 0 -0 13.7035 3.43734 -3.45766 -0 0 -0 30.8964 0.0632652 0.14496 -0 0 -0 25.6348 0.0524902 0.120274 -0 0 -0 -1.30426 -8.04702 7.96912 -0 0 -0 -13.7035 3.43734 -3.45766 -0 0 -0 -30.8964 0.0632652 0.14496 -0 0 -0 -25.6348 0.0524901 0.120274 -0 0 -0 9.77065 -4.44866 2.1502 -0 0 -0 -0.901622 -41.0132 -0.693059 -0 0 -0 -2.46068 -42.7371 -6.39839 -0 0 -0 0.82413 -10.4558 13.2182 -0 0 -0 -9.77065 -4.44866 2.1502 -0 0 -0 0.901622 -41.0132 -0.693059 -0 0 -0 2.46068 -42.7371 -6.39839 -0 0 -0 -0.82413 -10.4558 13.2182 -0 0 -0 
-19.976 95.5437 -109.572 2.59925 2.82411 -3.71235 0 5.37224 -1.21793 -2.38007 1.83751 -1.10801 0 5.94127 1.13336 -1.70134 1.95471 -1.35224 -1.08535e-17 6.33601 0.121658 -1.07614 2.28543 -1.19832 -1.16841e-17 6.88189 -0.46916 -0.395697 2.61667 -1.17103 -2.08699e-17 8.0451 -1.59297 0.0601536 2.63882 -1.03077 -2.67949e-17 10.0463 -0.967353 0.439685 2.84145 -1.04862 -3.07187e-17 11.1612 1.66806 0.0262942 0.0985437 0.0269598 -1.36661e-17 5.06312 0.756688 2.80217 -6.13898 12.1238 -1.91632e-17 5.09976 0.446172 -1.25388 -5.29412 5.25775 -2.12574e-17 5.10962 0.809285 -0.539212 -0.129652 -0.852385 1.30426 -8.04703 7.96922 7.47494 0.332855 -0.272481 13.7035 3.43734 -3.45766 -80.0526 37.8028 -16.8252 30.8964 0.0632652 0.14496 6.78569 -2.08111 -34.6604 25.6348 0.0524902 0.120274 -3.34588 -48.169 -5.75751 -1.30426 -8.04702 7.96912 7.30093 6.08984 3.4344 -13.7035 3.43734 -3.45766 82.9003 13.6068 3.22599 -30.8964 0.0632652 0.14496 -0.851581 -0.0260758 4.1074 -25.6348 0.0524901 0.120274 0.44643 0.928249 -3.571 9.77065 -4.44866 2.1502 -0.74804 6.62181 -17.9921 -0.901622 -41.0132 -0.693059 -2.3779 8.8477 0.0292361 -2.46068 -42.7371 -6.39839 -2.41065 -9.75567 16.6076 0.82413 -10.4558 13.2182 -3.47873e-16 -8.07563e-16 2.48481e-17 -9.77065 -4.44866 2.1502 7.63085 -37.337 30.09 0.901622 -41.0132 -0.693059 14.0224 42.9196 -4.74074 2.46068 -42.7371 -6.39839 -5.48222 -8.89173 -15.391 -0.82413 -10.4558 13.2182 -5.96354e-16 -5.59082e-16 -1.27471e-14 
-20.2692 95.3351 -108.228 2.78796 3.18708 -3.55227 0 5.37224 -1.21793 -2.36423 1.82848 -1.26112 0 5.94127 1.13336 -1.66844 1.97648 -1.47936 -1.08535e-17 6.33601 0.121658 -1.05285 2.33611 -1.30812 -1.16841e-17 6.88189 -0.46916 -0.379706 2.71249 -1.27624 -2.08699e-17 8.0451 -1.59297 0.0490482 2.75316 -1.13301 -2.67949e-17 10.0463 -0.967353 0.400146 2.97518 -1.12865 -3.07187e-17 11.1612 1.66806 0.0276292 0.0963848 0.0297655 -1.36661e-17 5.06312 0.756688 2.76595 -5.90626 12.557 -1.91632e-17 5.09976 0.446172 -1.30798 -5.77137 5.48982 -2.12574e-17 5.10962 0.809285 -0.761016 -0.769673 -1.04255 1.30426 -8.04703 7.96922 8.253 0.143285 -0.0720776 13.7035 3.43734 -3.45766 -78.6535 39.4157 -18.4345 30.8964 0.0632652 0.14496 7.82792 -2.88036 -40.9466 25.6348 0.0524902 0.120274 -1.8088 -50.5503 -4.52169 -1.30426 -8.04702 7.96912 6.83314 5.97343 3.26149 -13.7035 3.43734 -3.45766 83.2356 14.1326 2.19994 -30.8964 0.0632652 0.14496 -0.912213 -0.0302643 4.40035 -25.6348 0.0524901 0.120274 0.957279 1.84734 -3.41101 9.77065 -4.44866 2.1502 -0.731791 7.24536 -17.9899 -0.901622 -41.0132 -0.693059 -2.28159 8.49306 0.0209088 -2.46068 -42.7371 -6.39839 -2.57308 -9.47446 16.5831 0.82413 -10.4558 13.2182 -3.47873e-16 -8.07563e-16 2.48481e-17 -9.77065 -4.44866 2.1502 7.75113 -38.3353 30.4982 0.901622 -41.0132 -0.693059 12.8902 40.5179 -4.03004 2.46068 -42.7371 -6.39839 -4.64388 -8.32864 -15.4099 -0.82413 -10.4558 13.2182 -5.96354e-16 -5.59082e-16 -1.27471e-14 
-20.5981 95.107 -106.789 2.97856 3.54967 -3.29067 0 5.37224 -1.21793 -2.31095 1.82927 -1.39941 0 5.94127 1.13336 -1.61277 1.9956 -1.58737 -1.08535e-17 6.33601 0.121658 -1.01785 2.3703 -1.39814 -1.16841e-17 6.88189 -0.46916 -0.363662 2.76655 -1.36123 -2.08699e-17 8.0451 -1.59297 0.0308886 2.81577 -1.21637 -2.67949e-17 10.0463 -0.967353 0.346784 3.04606 -1.18973 -3.07187e-17 11.1612 1.66806 0.0278812 0.0947825 0.0324337 -1.36661e-17 5.06312 0.756688 2.64969 -5.57221 12.8241 -1.91632e-17 5.09976 0.446172 -1.29002 -6.29659 5.655 -2.12574e-17 5.10962 0.809285 -1.02434 -1.47589 -1.28439 1.30426 -8.04703 7.96922 9.10425 -0.0469428 0.184455 13.7035 3.43734 -3.45766 -77.4206 40.4534 -20.1178 30.8964 0.0632652 0.14496 8.75979 -3.77032 -47.1021 25.6348 0.0524902 0.120274 -0.538869 -52.2847 -3.50574 -1.30426 -8.04702 7.96912 6.07089 5.81638 2.97537 -13.7035 3.43734 -3.45766 83.8453 15.2637 0.942882 -30.8964 0.0632652 0.14496 -1.03156 -0.039427 4.97733 -25.6348 0.0524901 0.120274 1.54161 1.96205 -2.92459 9.77065 -4.44866 2.1502 -0.688197 7.82829 -18.1221 -0.901622 -41.0132 -0.693059 -2.22237 8.27471 0.0160854 -2.46068 -42.7371 -6.39839 -2.78966 -9.11943 16.5601 0.82413 -10.4558 13.2182 4.96962e-17 -7.95139e-16 1.2424e-17 -9.77065 -4.44866 2.1502 7.80389 -39.1544 31.0335 0.901622 -41.0132 -0.693059 11.8244 38.0831 -3.3981 2.46068 -42.7371 -6.39839 -3.64079 -7.63231 -15.4068 -0.82413 -10.4558 13.2182 -1.39149e-15 -5.34234e-16 -1.27098e-14 
